<svg width="16" height="16" viewBox="0 0 16 16" fill="none" xmlns="http://www.w3.org/2000/svg">
<g clip-path="url(#clip0_2281_11)">
<path d="M12.875 0H3.125C1.39911 0 0 1.39911 0 3.125V12.875C0 14.6009 1.39911 16 3.125 16H12.875C14.6009 16 16 14.6009 16 12.875V3.125C16 1.39911 14.6009 0 12.875 0Z" fill="#0055FF"/>
<path d="M12.4375 12.8125H10.7188V6.96875C10.7188 6.88247 10.7887 6.8125 10.875 6.8125C11.7379 6.8125 12.4375 7.51206 12.4375 8.375V12.8125Z" fill="white"/>
<path d="M6.40222 6C8.25197 6 9.75681 7.47606 9.80334 9.3145H9.80444V12.648C9.80444 12.7277 9.73981 12.7923 9.66009 12.7923C9.14853 12.7923 8.69912 12.5262 8.44278 12.1248C7.87431 12.5515 7.16781 12.8044 6.40222 12.8044C4.52312 12.8044 3 11.2812 3 9.40222C3 7.52322 4.52312 6 6.40222 6ZM6.40625 7.84375C5.54325 7.84375 4.84375 8.54331 4.84375 9.40625C4.84375 10.2692 5.54325 10.9687 6.40625 10.9687C7.26925 10.9687 7.96875 10.2692 7.96875 9.40625C7.96875 8.54331 7.26925 7.84375 6.40625 7.84375Z" fill="white"/>
<path d="M11.5938 2.625C12.5257 2.62501 13.2812 3.38052 13.2812 4.31249C13.2812 5.24446 12.5257 5.99999 11.5938 5.99999C10.6618 5.99999 9.90628 5.24449 9.90625 4.31249C9.90625 3.38052 10.6618 2.625 11.5938 2.625ZM10.9739 3.4508C10.9127 3.38402 10.8089 3.37952 10.7422 3.44074C10.6753 3.50196 10.6708 3.60574 10.732 3.67252L12.1389 5.20724C12.2002 5.27402 12.3039 5.27855 12.3707 5.21733C12.4375 5.15612 12.442 5.05233 12.3808 4.98552L10.9739 3.4508ZM10.9963 4.24768C10.9351 4.1809 10.8313 4.1764 10.7645 4.23762C10.6977 4.29883 10.6932 4.40262 10.7544 4.4694L10.9647 4.6988C10.9999 4.73724 11.0135 4.79843 10.975 4.83365C10.9201 4.88399 10.8316 4.8568 10.7579 4.87137C10.757 4.87155 10.7561 4.87174 10.7552 4.87193C10.7539 4.87218 10.7527 4.87249 10.7515 4.87277C10.7503 4.87305 10.7491 4.87333 10.7479 4.87365C10.7473 4.8738 10.7468 4.8739 10.7463 4.87405C10.7457 4.87421 10.7451 4.8744 10.7445 4.87458C10.7423 4.87518 10.7401 4.87587 10.738 4.87655C10.7377 4.87665 10.7374 4.87674 10.7371 4.87683L10.734 4.87787C10.7323 4.87849 10.7305 4.87918 10.7288 4.87987C10.7284 4.87999 10.7281 4.88008 10.7278 4.88021C10.7222 4.88249 10.7166 4.88508 10.7112 4.88799C10.7104 4.88846 10.7095 4.88893 10.7087 4.8894C10.7067 4.89052 10.7047 4.89168 10.7028 4.8929C10.7022 4.89324 10.7016 4.89365 10.701 4.89402C10.6992 4.89518 10.6973 4.89643 10.6955 4.89768C10.6945 4.89843 10.6934 4.89918 10.6924 4.89993C10.6909 4.90102 10.6894 4.90218 10.6879 4.90333C10.6871 4.90396 10.6862 4.90462 10.6854 4.90527C10.683 4.90727 10.6806 4.90937 10.6782 4.91152L10.6721 4.9174C10.6112 4.97921 10.6088 5.07862 10.6681 5.1433C10.7294 5.21008 10.8331 5.21462 10.8999 5.1534C10.9022 5.15124 10.9045 5.14905 10.9067 5.14683C10.908 5.14543 10.9093 5.14399 10.9106 5.14258C10.9113 5.14187 10.9119 5.14115 10.9125 5.14043C10.9136 5.13915 10.9147 5.13787 10.9158 5.13652C10.9168 5.13537 10.9178 5.13418 10.9187 5.13296C10.9195 5.13196 10.9202 5.13096 10.921 5.12996C10.9223 5.12824 10.9234 5.12649 10.9246 5.12474C10.9252 5.12393 10.9258 5.12315 10.9263 5.1223C10.9296 5.11733 10.9325 5.11224 10.9352 5.10699C10.9357 5.10593 10.9363 5.10487 10.9368 5.1038C10.9376 5.10199 10.9385 5.10018 10.9393 5.09833C10.9396 5.09758 10.9399 5.09683 10.9402 5.09612C10.9411 5.09399 10.942 5.0919 10.9427 5.08974C10.943 5.08924 10.9432 5.08874 10.9434 5.08824C10.9435 5.08777 10.9437 5.08733 10.9438 5.0869C10.9441 5.08615 10.9443 5.0854 10.9446 5.08465C10.9683 5.0139 10.9486 4.92458 11.0006 4.87118C11.0021 4.86962 11.0037 4.86808 11.0052 4.86665C11.0436 4.83149 11.1032 4.85012 11.1385 4.88833L11.347 5.11583C11.4082 5.18262 11.512 5.18715 11.5788 5.12593C11.6456 5.06471 11.6501 4.96093 11.5889 4.89415L10.9963 4.24768ZM11.6286 3.39693C11.5674 3.33015 11.4636 3.32565 11.3968 3.38687C11.33 3.44808 11.3255 3.55187 11.3867 3.61865L12.2494 4.55971C12.3106 4.62652 12.4144 4.63102 12.4812 4.5698C12.548 4.50858 12.5525 4.4048 12.4913 4.33802L11.6286 3.39693ZM12.352 3.41358C12.2908 3.3468 12.187 3.34227 12.1202 3.40349C12.0534 3.46474 12.0489 3.56849 12.1102 3.63527L12.2956 3.83758C12.3568 3.90437 12.4606 3.90887 12.5273 3.84765C12.5942 3.78643 12.5987 3.68268 12.5375 3.61587L12.352 3.41358Z" fill="white"/>
</g>
<defs>
<clipPath id="clip0_2281_11">
<rect width="16" height="16" fill="white"/>
</clipPath>
</defs>
</svg>
